<?xml version="1.0" standalone="no"?>
<!DOCTYPE svg PUBLIC "-//W3C//DTD SVG 20010904//EN"
 "http://www.w3.org/TR/2001/REC-SVG-20010904/DTD/svg10.dtd">
<svg version="1.0" xmlns="http://www.w3.org/2000/svg"
 width="549.000000pt" height="270.000000pt" viewBox="0 0 549.000000 270.000000"
 preserveAspectRatio="xMidYMid meet">
<metadata>
Created by potrace 1.13, written by Peter Selinger 2001-2015
</metadata>
<g transform="translate(0.000000,270.000000) scale(0.100000,-0.100000)"
fill="#000000" stroke="none">
<path d="M4240 2693 c-80 -31 -107 -143 -135 -568 -9 -126 -27 -340 -41 -475
-32 -313 -40 -507 -25 -582 10 -45 20 -64 50 -91 48 -43 100 -61 160 -54 63 7
100 51 134 160 56 173 145 322 191 315 22 -3 25 -12 51 -151 28 -155 82 -233
203 -290 64 -31 72 -32 192 -32 123 0 127 1 195 34 147 72 262 232 273 379 6
89 -13 136 -58 146 -19 3 -43 1 -59 -7 -26 -12 -31 -21 -92 -152 -41 -87 -120
-169 -181 -185 -85 -23 -155 16 -178 99 -13 50 -6 188 16 296 19 94 18 129 -6
175 -54 107 -191 135 -330 68 -25 -12 -80 -57 -122 -100 -43 -43 -80 -78 -83
-78 -3 0 -5 44 -5 99 0 147 38 508 76 723 15 84 15 88 -6 134 -25 59 -53 90
-100 114 -41 21 -98 32 -120 23z"/>
<path d="M237 2602 c-14 -15 -27 -84 -57 -290 -119 -814 -190 -1508 -176
-1712 26 -367 106 -531 286 -584 201 -60 365 54 402 278 9 54 7 89 -11 209
-19 123 -55 300 -76 373 -6 18 1 24 52 42 109 40 216 123 272 210 25 40 107
278 125 364 5 23 13 28 49 33 42 7 121 -8 131 -23 3 -5 7 -49 11 -100 9 -155
55 -263 137 -326 52 -39 142 -77 214 -89 112 -19 250 18 345 94 l40 31 53 -50
c89 -84 195 -124 375 -142 246 -25 507 31 693 149 l67 42 47 -36 c59 -45 83
-57 164 -85 83 -28 263 -38 341 -20 120 28 217 102 262 200 31 67 30 190 -2
251 -55 108 -184 212 -355 288 -105 47 -111 51 -146 122 -38 73 -70 99 -126
99 -53 0 -102 -38 -135 -106 -18 -38 -20 -55 -15 -102 4 -31 14 -67 22 -80 19
-29 13 -48 -72 -228 -45 -96 -60 -118 -101 -149 -113 -86 -277 -142 -444 -152
-118 -7 -180 7 -234 52 l-30 24 38 1 c181 1 403 115 466 238 79 154 25 284
-142 342 -88 31 -249 38 -353 15 -166 -36 -333 -146 -388 -256 -14 -28 -31
-85 -38 -126 -11 -68 -16 -78 -50 -107 -43 -37 -98 -56 -178 -63 -77 -6 -118
17 -144 80 -19 44 -19 54 -7 130 7 45 16 114 18 153 5 67 4 72 -24 100 -16 16
-53 42 -83 58 -44 24 -68 30 -153 35 l-100 6 -15 53 c-18 65 -57 108 -105 117
-58 11 -103 -2 -147 -44 l-40 -38 0 -119 c0 -130 -17 -211 -69 -334 -15 -36
-36 -87 -46 -114 -32 -87 -129 -171 -228 -198 l-47 -12 -45 51 c-25 28 -61 62
-81 74 l-36 22 4 186 c5 186 5 186 77 516 114 522 115 527 81 583 -22 36 -45
47 -128 61 -31 6 -73 13 -92 17 -28 4 -39 2 -53 -14z m2311 -1068 c28 -19 28
-58 1 -85 -40 -40 -108 -63 -187 -63 -39 1 -75 4 -79 8 -11 11 37 96 64 113
60 39 163 54 201 27z m988 -75 c131 -62 169 -123 124 -197 -25 -41 -73 -62
-142 -62 -48 0 -168 23 -189 36 -5 3 2 26 15 52 13 26 31 81 40 122 10 41 20
81 22 88 5 17 27 11 130 -39z m-3165 -622 c76 -133 83 -161 82 -327 -1 -149
-16 -274 -35 -297 -6 -7 -21 -13 -35 -13 -19 0 -28 9 -43 43 -28 62 -50 204
-50 316 0 109 20 361 29 361 3 0 27 -37 52 -83z"/>
</g>
</svg>
